<?xml version="1.0" encoding="utf-8"?>
<!-- Svg Vector Icons : http://www.onlinewebfonts.com/icon -->
<!DOCTYPE svg PUBLIC "-//W3C//DTD SVG 1.1//EN" "http://www.w3.org/Graphics/SVG/1.1/DTD/svg11.dtd">
<svg version="1.1" xmlns="http://www.w3.org/2000/svg" xmlns:xlink="http://www.w3.org/1999/xlink" x="0px" y="0px" viewBox="0 0 1000 1000" enable-background="new 0 0 1000 1000" xml:space="preserve">
<metadata> Svg Vector Icons : http://www.onlinewebfonts.com/icon </metadata>
<g><path d="M985.8,277.1c-4.2-8.4-12.6-12.6-21-12.6H228.7L178.2,54.2c-4.2-8.4-16.8-16.8-29.4-16.8H39.4C22.6,37.3,10,45.8,10,62.6c0,16.8,12.6,25.2,25.2,25.2h92.5l164,681.4c-42.1,12.6-71.5,50.5-71.5,92.5c0,54.7,46.3,100.9,100.9,100.9c54.7,0,100.9-46.3,100.9-100.9c0-16.8-4.2-33.6-12.6-46.3h235.5c-8.4,12.6-12.6,29.4-12.6,46.3c0,54.7,46.3,100.9,100.9,100.9s100.9-46.3,100.9-100.9s-46.3-100.9-100.9-100.9h-387l-12.6-50.5h500.5c12.6,0,21-8.4,25.2-16.8L990,298.1C990,293.9,990,285.5,985.8,277.1z M733.4,819.7c25.2,0,46.3,21,46.3,46.3c0,25.2-21,46.3-46.3,46.3c-25.2,0-46.3-21-46.3-46.3C687.2,840.7,708.2,819.7,733.4,819.7z M367.5,865.9c0,25.2-21,46.3-46.3,46.3c-25.2,0-46.3-21-46.3-46.3c0-25.2,21-46.3,46.3-46.3C346.5,819.7,367.5,840.7,367.5,865.9z"/></g>
</svg>